<svg xmlns="http://www.w3.org/2000/svg" width="806.1" height="598.97" viewBox="0 0 806.1 598.97"><defs><style>.cls-1{fill:#141414;}.cls-2{fill:#161616;}.cls-3{opacity:0.06;}.cls-4{fill:#fff;}.cls-5{fill:#111;}.cls-6{fill:#191919;}.cls-7{fill:#282828;}.cls-8{opacity:0.25;isolation:isolate;}.cls-9{fill:#1e1e1e;}.cls-10{fill:#1a1a1a;}.cls-11{fill:#0f0f0f;}.cls-12{fill:#fb0c2f;}.cls-13{fill:#121212;}.cls-14{fill:#0a0a0a;}.cls-15{fill:#676767;}.cls-16{fill:#6c6c6c;}.cls-17{fill:#bbbbbd;}.cls-18{fill:#2e2e2e;}</style></defs><g id="レイヤー_2" data-name="レイヤー 2"><g id="Layer_1" data-name="Layer 1"><path class="cls-1" d="M403.26,106.91l-131.16,0s-93.5,1.82-129.5,14.76-43.08,20.29-57.37,38.9S67.43,187.78,65.81,191s-14,40.45-17,55S34.4,306.83,32.24,318.7s-11.33,56.09-13.48,71.73S7.43,467,15,508.54s17.26,55.55,27,67.95S62.78,594.41,68.85,599h57.7a122.73,122.73,0,0,0,13.32-9.84c5.46-4.85,69.07-83.62,69.07-83.62s17-23.87,36.81-30.75,44.09-6.87,54.2-6.87,103.31-1,103.31-1"/><path class="cls-1" d="M403.05,106.91l131.15,0s93.51,1.82,129.51,14.76,43.08,20.29,57.37,38.9,17.8,27.24,19.41,30.47,14,40.45,17,55,14.43,60.81,16.59,72.68,11.32,56.09,13.48,71.73,11.33,76.58,3.78,118.11-17.26,55.55-27,67.95-20.83,17.92-26.9,22.48H679.75a123.07,123.07,0,0,1-13.31-9.84c-5.46-4.85-69.07-83.62-69.07-83.62s-17-23.87-36.81-30.75-44.09-6.87-54.2-6.87-103.31-1-103.31-1"/><path class="cls-2" d="M403,276h-59.9s-8.22.4-13.61-3.38-117.24-91.95-117.24-91.95,1.69,1.48-15.3-11.46-72.81-23.46-108.4,16.58-20.23,95.6-2,113.73S235,417.93,235,417.93s12.92,12.2,34.49,12.14S403,431.13,403,431.13"/><path class="cls-2" d="M403.05,276H463s8.22.4,13.61-3.38S593.8,180.63,593.8,180.63s-1.69,1.48,15.3-11.46,72.81-23.46,108.41,16.58,20.22,95.6,2,113.73S571,417.93,571,417.93s-12.92,12.2-34.49,12.14-133.48,1.06-133.48,1.06"/><g class="cls-3"><path class="cls-4" d="M36.6,276c9.4-27.7,13.1-53,17-64.9,12-35.7,33-65.7,33-65.7s9.5-13.1,10.1-16.3,4.7-8.6,4.7-8.6,17.4-5.7,62.3-5.7,53.7,5,53.7,5a22.57,22.57,0,0,0,5.9,4.8c3.5,1.8,11.7,1.7,11.7,1.7h33.4a1,1,0,0,1,.9.3,5.39,5.39,0,0,1,.6,2H536.1a7,7,0,0,1,.6-2,1,1,0,0,1,.9-.3H571s8.2.2,11.7-1.7a20.58,20.58,0,0,0,5.9-4.8s8.8-5,53.7-5,62.3,5.7,62.3,5.7,4.1,5.3,4.7,8.6,10.1,16.3,10.1,16.3,21,30,33,65.7c4,11.9,7.7,37.2,17,64.9,14.3,42.1,29.1,129.1,32,144.6,3.9,20.9,4.6,77.3,4.7,88.3v-.1s-.3-66.9-4.7-90.1c-2.9-15.5-17.7-102.5-32-144.6-9.4-27.7-13.1-53-17-64.9-12-35.7-33-65.7-33-65.7s-9.5-13.1-10.1-16.3-4.7-8.6-4.7-8.6-17.4-5.7-62.3-5.7-53.7,5-53.7,5a22.57,22.57,0,0,1-5.9,4.8c-3.5,1.8-11.7,1.7-11.7,1.7H537.6a1,1,0,0,0-.9.3,5.39,5.39,0,0,0-.6,2H269.9a7,7,0,0,0-.6-2,1,1,0,0,0-.9-.3H235s-8.2.2-11.7-1.7a20.58,20.58,0,0,1-5.9-4.8s-8.8-5-53.7-5-62.3,5.7-62.3,5.7-4.1,5.3-4.7,8.6-10.1,16.3-10.1,16.3-21,30-33,65.7c-4,11.9-7.7,37.2-17,64.9C22.3,316.2,7.5,403.2,4.6,418.7.3,441.8,0,508.8,0,508.8v.1c.1-10.9.7-67.4,4.7-88.3C7.6,405.2,22.3,318.1,36.6,276Z"/></g><circle class="cls-5" cx="274.3" cy="350" r="55.1"/><circle class="cls-5" cx="531.3" cy="350" r="55.1"/><circle cx="274.7" cy="350" r="51.5"/><circle cx="531.3" cy="350" r="51.5"/><circle class="cls-6" cx="153.9" cy="244.3" r="68.65"/><path class="cls-7" d="M171.62,199.78V217s2.34,9.62,9.58,9.58,17.35,0,17.35,0V244.3l-44.65.1V199.78Z"/><path class="cls-7" d="M171.62,288.92V271.7s2.34-9.62,9.58-9.58,17.35,0,17.35,0V244.4l-44.65-.1v44.62Z"/><path class="cls-7" d="M136.18,288.31V271.08s-2.34-9.62-9.58-9.58-17.35,0-17.35,0V243.78l44.65-.1v44.63Z"/><path class="cls-7" d="M136.18,199.78V217s-2.34,9.62-9.58,9.58-17.35,0-17.35,0V244.3l44.65.1V199.78Z"/><path class="cls-7" d="M141.2,247.2c1.4-2,1.2-2.9,1.2-2.9s.2-.9-1.2-2.9-15-13.6-15.7-14-28.5-2.2-31.4,1.3-2.6,15.6-2.6,15.6-.3,12.1,2.6,15.6,30.7,1.7,31.4,1.3S139.8,249.2,141.2,247.2Z"/><path class="cls-8" d="M141.2,247.2c1.4-2,1.2-2.9,1.2-2.9s.2-.9-1.2-2.9c-.9-1.3-6.9-6.6-11.2-10.3a27.82,27.82,0,0,0-3.4,13.2,26.63,26.63,0,0,0,3.4,13.2C134.3,253.8,140.3,248.5,141.2,247.2Z"/><path class="cls-7" d="M151,231.6c2,1.4,2.9,1.2,2.9,1.2s.9.2,2.9-1.2,13.6-15,14-15.7,2.2-28.5-1.3-31.4-15.6-2.6-15.6-2.6-12.1-.3-15.6,2.6-1.7,30.7-1.3,31.4S149,230.2,151,231.6Z"/><path class="cls-8" d="M151,231.6c2,1.4,2.9,1.2,2.9,1.2s.9.2,2.9-1.2c1.3-.9,6.6-6.9,10.3-11.2a27.82,27.82,0,0,0-13.2-3.4,26.63,26.63,0,0,0-13.2,3.4C144.5,224.7,149.7,230.7,151,231.6Z"/><path class="cls-7" d="M213.7,228.8c-2.9-3.5-30.7-1.7-31.4-1.3s-14.3,12-15.7,14-1.2,2.9-1.2,2.9-.2.9,1.2,2.9,15,13.6,15.7,14,28.5,2.2,31.4-1.3,2.6-15.6,2.6-15.6S216.6,232.3,213.7,228.8Z"/><path class="cls-8" d="M177.9,231.2c-4.3,3.7-10.3,9-11.2,10.3-1.4,2-1.2,2.9-1.2,2.9s-.2.9,1.2,2.9c.9,1.3,6.9,6.6,11.2,10.3a27.34,27.34,0,0,0,0-26.4Z"/><path class="cls-7" d="M156.8,257.1c-2-1.4-2.9-1.2-2.9-1.2s-.9-.2-2.9,1.2-13.6,15-14,15.7-2.2,28.5,1.3,31.4,15.6,2.6,15.6,2.6,12.1.3,15.6-2.6,1.7-30.7,1.3-31.4S158.8,258.5,156.8,257.1Z"/><path class="cls-8" d="M156.8,257.1c-2-1.4-2.9-1.2-2.9-1.2s-.9-.2-2.9,1.2c-1.3.9-6.6,6.9-10.3,11.2a27.82,27.82,0,0,0,13.2,3.4,26.63,26.63,0,0,0,13.2-3.4C163.4,264,158.1,258,156.8,257.1Z"/><circle class="cls-9" cx="153.95" cy="244.35" r="27.35"/><path class="cls-10" d="M709.9,271a26.3,26.3,0,1,1,26.3-26.3h0A26.33,26.33,0,0,1,709.9,271Z"/><path class="cls-11" d="M709.9,219.5a25.25,25.25,0,1,1-25.3,25.2,25.24,25.24,0,0,1,25.3-25.2m0-2a27.3,27.3,0,1,0,27.3,27.3h0A27.34,27.34,0,0,0,709.9,217.5Z"/><path class="cls-12" d="M709.9,225.9a18.9,18.9,0,1,0,18.9,18.9A18.9,18.9,0,0,0,709.9,225.9Zm0,34.9a16,16,0,1,1,16-16A16,16,0,0,1,709.9,260.8Z"/><path class="cls-10" d="M652.3,328.6a26.3,26.3,0,1,1,26.3-26.3h0A26.33,26.33,0,0,1,652.3,328.6Z"/><path class="cls-11" d="M652.3,277.1A25.3,25.3,0,1,1,627,302.4h0a25.33,25.33,0,0,1,25.3-25.3m0-2a27.3,27.3,0,1,0,27.3,27.3h0A27.34,27.34,0,0,0,652.3,275.1Z"/><polygon class="cls-12" points="666.7 290 664.7 288 652.3 300.4 640 288 638 290 650.3 302.4 638 314.7 640 316.7 652.3 304.4 664.7 316.7 666.7 314.7 654.3 302.4 666.7 290"/><path class="cls-10" d="M594.8,271a26.3,26.3,0,1,1,26.3-26.3h0A26.33,26.33,0,0,1,594.8,271Z"/><path class="cls-11" d="M594.7,219.5a25.25,25.25,0,1,1-25.3,25.2,25.24,25.24,0,0,1,25.3-25.2m0-2A27.3,27.3,0,1,0,622,244.8h0A27.34,27.34,0,0,0,594.7,217.5Z"/><path class="cls-12" d="M606.3,230.4H580.5V259h28.6V230.4Zm0,25.9h-23v-23h23Z"/><path class="cls-10" d="M652.3,213.5a26.3,26.3,0,1,1,26.3-26.3h0A26.33,26.33,0,0,1,652.3,213.5Z"/><path class="cls-11" d="M652.3,162A25.3,25.3,0,1,1,627,187.3h0A25.33,25.33,0,0,1,652.3,162m0-2a27.3,27.3,0,1,0,27.3,27.3h0A27.34,27.34,0,0,0,652.3,160Z"/><path class="cls-12" d="M668.3,195.2l-16-27.6-16,27.6-1.6,2.8h35.2Zm-16,0H639.6l12.7-21.9L665,195.2Z"/><path class="cls-13" d="M697.2,90.8s-32.7-3.2-50.6-3.2S598.2,90,598.2,90s3.1-44.7,4.8-52,7.7-21.3,16.9-27.9S631.8,0,642.6,0,668,6.4,677.2,21.4,697.2,90.8,697.2,90.8Z"/><path class="cls-14" d="M598.7,83.2s26.1-4.4,49-4.4,47.9,4.4,47.9,4.4c1,4.7,1.6,7.6,1.6,7.6s-32.7-3.2-50.6-3.2S598.2,90,598.2,90,598.4,87.3,598.7,83.2Z"/><path class="cls-12" d="M648.7,65.7l-3.2,2.6a6.71,6.71,0,0,0-2,4.5h9.8V70.2H647a6.7,6.7,0,0,1,2.1-1.9,12.48,12.48,0,0,0,2.7-2.1,4.75,4.75,0,0,0,1.3-3.3,4.23,4.23,0,0,0-1.4-3.3,5.13,5.13,0,0,0-3.5-1.2c-3.1,0-4.7,1.7-4.7,5h2.7q0-2.7,2.1-2.7a1.82,1.82,0,0,1,2,1.63,1.85,1.85,0,0,1,0,.47C650.5,63.9,649.9,64.8,648.7,65.7Z"/><path class="cls-12" d="M631.1,67.2h3c1.5,0,2.3.6,2.4,1.9s.2,2.5.3,3.8h3.3v-.4c-.5-.2-.7-.7-.7-1.5a2.7,2.7,0,0,1,.1-.8v-.7a3.56,3.56,0,0,0-1.8-3.5,3.24,3.24,0,0,0,2.2-3.4,3.54,3.54,0,0,0-1.3-3,4.74,4.74,0,0,0-3.2-1h-7.3V72.9h3Zm0-6.2h3.7c1.4,0,2.1.6,2.1,1.9s-.8,1.9-2.3,1.9h-3.5Z"/><path class="cls-13" d="M108.8,90.8s32.7-3.2,50.6-3.2S207.7,90,207.7,90s-3.1-44.7-4.8-52S195.2,16.7,186,10.1,174.2,0,163.4,0,138,6.4,128.8,21.4,108.8,90.8,108.8,90.8Z"/><path class="cls-14" d="M207.3,83.2s-26.1-4.4-49-4.4-47.9,4.4-47.9,4.4c-1,4.7-1.6,7.6-1.6,7.6s32.7-3.2,50.6-3.2S207.7,90,207.7,90,207.6,87.3,207.3,83.2Z"/><path class="cls-12" d="M173.3,65.7l-3.2,2.6a6.71,6.71,0,0,0-2,4.5h9.8V70.2h-6.2a6.7,6.7,0,0,1,2.1-1.9,12.48,12.48,0,0,0,2.7-2.1,4.75,4.75,0,0,0,1.3-3.3,4.23,4.23,0,0,0-1.4-3.3,5.13,5.13,0,0,0-3.5-1.2c-3.1,0-4.7,1.7-4.7,5h2.7q0-2.7,2.1-2.7a1.82,1.82,0,0,1,2,1.63,1.85,1.85,0,0,1,0,.47C175.1,63.9,174.5,64.8,173.3,65.7Z"/><polygon class="cls-12" points="164.8 70.2 157.8 70.2 157.8 58.5 154.7 58.5 154.7 72.8 164.8 72.8 164.8 70.2"/><path class="cls-5" d="M234.3,108.5,223,97s-41.5.67-59.3,5.76-40.45,11.83-56.09,28.82S88,157,88,157s22.9-31.58,73.16-40.22S234.3,108.5,234.3,108.5Z"/><path class="cls-5" d="M572,108.5,583.31,97s41.5.67,59.3,5.76,40.45,11.83,56.09,28.82S718.3,157,718.3,157s-22.9-31.58-73.16-40.22S572,108.5,572,108.5Z"/><path class="cls-5" d="M403.39,117.8H273.05v72s.27,12.67,8.36,19.95,52.31,42.07,52.31,42.07,2.43,4.05,13.76,4.05h55.91"/><path class="cls-5" d="M403.05,117.8H533.39v72s-.27,12.67-8.36,19.95-52.31,42.07-52.31,42.07-2.43,4.05-13.75,4.05H403.05"/><polyline class="cls-15" points="403.39 106.67 273.05 106.67 273.05 117.8 403.39 117.8"/><polyline class="cls-15" points="403.05 106.67 533.39 106.67 533.39 117.8 403.05 117.8"/><path class="cls-16" d="M367.52,133H349.45s-3,.06-4.32,1.41a7.68,7.68,0,0,0-1.61,3.64v10.92H354.1l8.5-7.48-.07,7.48h5Z"/><polygon class="cls-16" points="369.54 143.99 369.54 148.99 376.58 148.99 388.54 136.99 393.52 136.99 393.52 131.99 388.57 131.99 375.54 144.01 369.54 143.99"/><polygon class="cls-16" points="395.55 128.01 395.55 142.98 401.57 148.99 416.59 148.99 416.59 143.96 400.61 143.81 400.56 136.99 416.59 136.99 416.59 131.99 400.56 131.99 400.51 128.01 395.55 128.01"/><path class="cls-16" d="M438.56,137H426.49s-2.77.74-3,3,0,9.05,0,9.05h-5v-11.1s.7-5.87,6-5.9,14,0,14,0Z"/><path class="cls-16" d="M463.53,132h-18s-6,1.37-6,6.05v4.92s-.2,5.13,5,5.09,14,0,14,0,5,0,5-5.09S463.53,132,463.53,132Z"/><polygon class="cls-16" points="374.82 132.36 371.26 130.52 367.73 132.42 368.37 128.46 365.48 125.69 369.44 125.08 371.18 121.47 372.99 125.05 376.96 125.59 374.11 128.41 374.82 132.36"/><path class="cls-5" d="M359.54,137h-9s-3,.5-3,3,0,5,0,5h5.08l7-7Z"/><path class="cls-5" d="M458.54,137h-12a1.94,1.94,0,0,0-1.95,2v3s0,2.06,1.95,2.06h10l2.05-2Z"/><polygon class="cls-12" points="82.72 331.77 84.07 332.85 76.25 342.7 101.19 363.87 100.25 365.21 74.09 342.7 82.72 331.77"/><polygon class="cls-12" points="104.39 368.79 155.16 406.4 156.17 404.99 105.4 367.37 104.39 368.79"/><polygon class="cls-17" points="598.72 429.93 611.39 445.98 741.37 339.73 743.66 313.84 598.72 429.93"/><polygon class="cls-12" points="621.94 448.88 623.76 450.7 732.4 362.65 731.06 361.03 621.94 448.88"/><path class="cls-18" d="M403.67,367.88H386.16s-9.81,2.42-9.91,10.21-.2,14.87-.2,14.87,5.36,9.1,10,9.1h17.61"/><path class="cls-18" d="M403.05,367.88h17.51s9.81,2.42,9.91,10.21.2,14.87.2,14.87-5.36,9.1-10,9.1H403.05"/></g></g></svg>