<svg xmlns="http://www.w3.org/2000/svg" width="260.34" height="149.19" viewBox="0 0 260.34 149.19"><defs><style>.cls-1{fill:#fff;}.cls-2{fill:#ed5151;}</style></defs><g id="レイヤー_2" data-name="レイヤー 2"><g id="レイヤー_1-2" data-name="レイヤー 1"><g id="レイヤー_2-2" data-name="レイヤー 2"><g id="レイヤー_1-2-2" data-name="レイヤー 1-2"><path class="cls-1" d="M130.34,11.12H0v72s.27,12.68,8.36,20,52.31,42.07,52.31,42.07,2.43,4,13.76,4h55.91"/><path class="cls-1" d="M130,11.12H260.34v72s-.27,12.68-8.36,20-52.31,42.07-52.31,42.07-2.43,4-13.75,4H130"/><polyline class="cls-2" points="130.34 0 0 0 0 11.12 130.34 11.12"/><polyline class="cls-2" points="130 0 260.34 0 260.34 11.12 130 11.12"/><path class="cls-2" d="M94.47,26.29H76.4s-3,.07-4.32,1.42a7.69,7.69,0,0,0-1.61,3.64V42.27H81.05l8.5-7.48-.07,7.48h5Z"/><polygon class="cls-2" points="96.49 37.32 96.49 42.31 103.53 42.31 115.49 30.31 120.47 30.31 120.47 25.32 115.52 25.32 102.49 37.34 96.49 37.32"/><polygon class="cls-2" points="122.5 21.34 122.5 36.3 128.52 42.31 143.54 42.31 143.54 37.29 127.56 37.14 127.51 30.31 143.54 30.31 143.54 25.32 127.51 25.32 127.46 21.34 122.5 21.34"/><path class="cls-2" d="M165.51,30.3H153.44s-2.77.74-3,3,0,9,0,9h-5V31.21s.7-5.86,6-5.9,14,0,14,0Z"/><path class="cls-2" d="M190.48,25.3h-18s-6,1.36-6,6.05v4.92s-.2,5.12,5,5.09,14,0,14,0,5,0,5-5.09Z"/><polygon class="cls-2" points="101.77 25.68 98.21 23.85 94.68 25.75 95.32 21.79 92.43 19.02 96.39 18.4 98.13 14.79 99.94 18.37 103.91 18.92 101.06 21.74 101.77 25.68"/><path class="cls-1" d="M86.49,30.31h-9s-3,.51-3,3v5h5.08l7-7Z"/><path class="cls-1" d="M185.49,30.34h-12a1.94,1.94,0,0,0-2,1.88v3.07a2,2,0,0,0,1.95,2.05h10.05l2-2Z"/></g></g></g></g></svg>