<svg xmlns="http://www.w3.org/2000/svg" width="178.53" height="103.93" viewBox="0 0 178.53 103.93"><defs><style>.cls-1{fill:#ff4881;}.cls-2,.cls-4{opacity:0.25;isolation:isolate;}.cls-3{fill:#e6e6e6;}.cls-4{fill:#fff;}</style></defs><g id="レイヤー_2" data-name="レイヤー 2"><g id="Layer_1" data-name="Layer 1"><path class="cls-1" d="M124.52,20.62c1.4-2,1.2-2.9,1.2-2.9s.2-.9-1.2-2.9-15-13.6-15.7-14-28.5-2.2-31.4,1.3-2.6,15.6-2.6,15.6-.3,12.1,2.6,15.6,30.7,1.7,31.4,1.3S123.12,22.62,124.52,20.62Z"/><path class="cls-2" d="M124.52,20.62c1.4-2,1.2-2.9,1.2-2.9s.2-.9-1.2-2.9c-.9-1.3-6.9-6.6-11.2-10.3a27.79,27.79,0,0,0-3.4,13.2,26.63,26.63,0,0,0,3.4,13.2C117.62,27.22,123.62,21.92,124.52,20.62Z"/><path class="cls-1" d="M52.22,49.72c2,1.4,2.9,1.2,2.9,1.2s.9.2,2.9-1.2,13.6-15,14-15.7,2.2-28.5-1.3-31.4S55.12,0,55.12,0,43-.18,39.52,2.62s-1.7,30.7-1.3,31.4S50.22,48.32,52.22,49.72Z"/><path class="cls-2" d="M52.22,49.72c2,1.4,2.9,1.2,2.9,1.2s.9.2,2.9-1.2c1.3-.9,6.6-6.9,10.3-11.2a27.82,27.82,0,0,0-13.2-3.4,26.63,26.63,0,0,0-13.2,3.4C45.62,42.82,50.92,48.82,52.22,49.72Z"/><path class="cls-1" d="M175.92,2.22c-2.9-3.5-30.7-1.7-31.4-1.3s-14.3,12-15.7,14-1.2,2.9-1.2,2.9-.2.9,1.2,2.9,15,13.6,15.7,14,28.5,2.2,31.4-1.3,2.6-15.6,2.6-15.6S178.82,5.72,175.92,2.22Z"/><path class="cls-2" d="M140.12,4.62c-4.3,3.7-10.3,9-11.2,10.3-1.4,2-1.2,2.9-1.2,2.9s-.2.9,1.2,2.9c.9,1.3,6.9,6.6,11.2,10.3a27.82,27.82,0,0,0,3.4-13.2A27.79,27.79,0,0,0,140.12,4.62Z"/><path class="cls-1" d="M20.62,1.22c-2-1.4-2.9-1.2-2.9-1.2s-.9-.2-2.9,1.2-13.6,15-14,15.7-2.2,28.5,1.3,31.4,15.6,2.6,15.6,2.6,12.1.3,15.6-2.6,1.7-30.7,1.3-31.4S22.62,2.62,20.62,1.22Z"/><path class="cls-2" d="M20.62,1.22c-2-1.4-2.9-1.2-2.9-1.2s-.9-.2-2.9,1.2c-1.3.9-6.6,6.9-10.3,11.2a27.79,27.79,0,0,0,13.2,3.4,26.85,26.85,0,0,0,13.2-3.4C27.22,8.12,21.92,2.12,20.62,1.22Z"/><path class="cls-3" d="M124.52,73.62c1.4-2,1.2-2.9,1.2-2.9s.2-.9-1.2-2.9-15-13.6-15.7-14-28.5-2.2-31.4,1.3-2.6,15.6-2.6,15.6-.3,12.1,2.6,15.6,30.7,1.7,31.4,1.3S123.12,75.62,124.52,73.62Z"/><path class="cls-4" d="M124.52,73.62c1.4-2,1.2-2.9,1.2-2.9s.2-.9-1.2-2.9c-.9-1.3-6.9-6.6-11.2-10.3a27.79,27.79,0,0,0-3.4,13.2,26.63,26.63,0,0,0,3.4,13.2C117.62,80.22,123.62,74.92,124.52,73.62Z"/><path class="cls-3" d="M52.22,102.72c2,1.4,2.9,1.2,2.9,1.2s.9.2,2.9-1.2,13.6-15,14-15.7,2.2-28.5-1.3-31.4S55.12,53,55.12,53s-12.1-.2-15.6,2.6-1.7,30.7-1.3,31.4S50.22,101.32,52.22,102.72Z"/><path class="cls-4" d="M52.22,102.72c2,1.4,2.9,1.2,2.9,1.2s.9.2,2.9-1.2c1.3-.9,6.6-6.9,10.3-11.2a27.82,27.82,0,0,0-13.2-3.4,26.63,26.63,0,0,0-13.2,3.4C45.62,95.82,50.92,101.82,52.22,102.72Z"/><path class="cls-3" d="M175.92,55.12c-2.9-3.5-30.7-1.7-31.4-1.3s-14.3,12-15.7,14-1.2,2.9-1.2,2.9-.2.9,1.2,2.9,15,13.6,15.7,14,28.5,2.2,31.4-1.3,2.6-15.6,2.6-15.6S178.82,58.62,175.92,55.12Z"/><path class="cls-4" d="M140.12,57.62c-4.3,3.7-10.3,9-11.2,10.3-1.4,2-1.2,2.9-1.2,2.9s-.2.9,1.2,2.9c.9,1.3,6.9,6.6,11.2,10.3A27.34,27.34,0,0,0,140.12,57.62Z"/><path class="cls-3" d="M20.62,54.22c-2-1.4-2.9-1.2-2.9-1.2s-.9-.2-2.9,1.2-13.6,15-14,15.7-2.2,28.5,1.3,31.4,15.6,2.6,15.6,2.6,12.1.3,15.6-2.6,1.7-30.7,1.3-31.4S22.62,55.62,20.62,54.22Z"/><path class="cls-4" d="M20.62,54.22c-2-1.4-2.9-1.2-2.9-1.2s-.9-.2-2.9,1.2c-1.3.9-6.6,6.9-10.3,11.2a27.79,27.79,0,0,0,13.2,3.4,26.85,26.85,0,0,0,13.2-3.4C27.22,61.12,21.92,55.12,20.62,54.22Z"/></g></g></svg>