<svg xmlns="http://www.w3.org/2000/svg" width="224" height="112.4" viewBox="0 0 224 112.4"><defs><style>.cls-1{fill:#e6e6e6;}.cls-2{fill:#f0f0f0;}.cls-3{fill:#1a1a1a;}.cls-4{fill:#0f0f0f;}.cls-5{fill:#ff4881;}</style></defs><g id="レイヤー_2" data-name="レイヤー 2"><g id="Layer_1" data-name="Layer 1"><path class="cls-1" d="M83.8,111.3A26.25,26.25,0,1,1,110,85v.1A26.33,26.33,0,0,1,83.8,111.3Z"/><path class="cls-2" d="M83.8,59.8A25.25,25.25,0,1,1,58.5,85.1,25.25,25.25,0,0,1,83.8,59.8m0-2A27.25,27.25,0,1,0,111,85.1,27.25,27.25,0,0,0,83.8,57.8Z"/><path class="cls-3" d="M83.8,66.2a18.9,18.9,0,1,0,18.9,18.9A18.9,18.9,0,0,0,83.8,66.2Zm0,34.9a16,16,0,1,1,16-16A16,16,0,0,1,83.8,101.1Z"/><path class="cls-1" d="M27.2,111.3a26.33,26.33,0,1,1,.14,0Z"/><path class="cls-2" d="M27.3,59.8A25.25,25.25,0,1,1,2,85.1,25.25,25.25,0,0,1,27.3,59.8m0-2A27.3,27.3,0,1,0,54.6,85.1h0A27.34,27.34,0,0,0,27.3,57.8Z"/><polygon class="cls-3" points="41.6 72.7 39.6 70.7 27.3 83.1 14.9 70.7 12.9 72.7 25.2 85.1 12.9 97.4 14.9 99.5 27.3 87.1 39.6 99.5 41.6 97.4 29.3 85.1 41.6 72.7"/><path class="cls-1" d="M140.3,111.3a26.25,26.25,0,1,1,.1,0Z"/><path class="cls-2" d="M140.3,59.8A25.25,25.25,0,1,1,115,85.1a25.25,25.25,0,0,1,25.3-25.3m0-2A27.25,27.25,0,1,0,167.6,85,27.25,27.25,0,0,0,140.3,57.8Z"/><path class="cls-3" d="M151.8,70.7H126V99.3h28.6V70.7Zm0,25.9h-23v-23h23Z"/><path class="cls-1" d="M196.7,111.3A26.25,26.25,0,1,1,223,85.1,26.25,26.25,0,0,1,196.7,111.3Z"/><path class="cls-2" d="M196.8,59.8a25.25,25.25,0,1,1-25.3,25.3,25.25,25.25,0,0,1,25.3-25.3m0-2A27.25,27.25,0,1,0,224,85.1,27.25,27.25,0,0,0,196.8,57.8Z"/><path class="cls-3" d="M212.7,93.1l-16-27.6-16,27.6-1.6,2.8h35.2Zm-15.9,0H184.1l12.7-21.9,12.7,21.9Z"/><path class="cls-3" d="M83.8,53.5A26.25,26.25,0,1,1,110,27.2,26.25,26.25,0,0,1,83.8,53.5Z"/><path class="cls-4" d="M83.8,2a25.24,25.24,0,1,1-.12,0h.12m0-2A27.3,27.3,0,1,0,111,27.4v-.1A27.34,27.34,0,0,0,83.8,0Z"/><path class="cls-5" d="M83.8,8.4a18.9,18.9,0,1,0,18.9,18.9A18.9,18.9,0,0,0,83.8,8.4Zm0,34.9a16,16,0,1,1,16-16A16,16,0,0,1,83.8,43.3Z"/><path class="cls-3" d="M27.2,53.5A26.25,26.25,0,1,1,53.5,27.3,26.25,26.25,0,0,1,27.2,53.5Z"/><path class="cls-4" d="M27.3,2A25.25,25.25,0,1,1,2,27.3,25.25,25.25,0,0,1,27.3,2m0-2A27.3,27.3,0,1,0,54.6,27.3h0A27.27,27.27,0,0,0,27.36,0Z"/><polygon class="cls-5" points="41.6 14.9 39.6 12.9 27.3 25.2 14.9 12.9 12.9 14.9 25.2 27.2 12.9 39.6 14.9 41.6 27.3 29.3 39.6 41.6 41.6 39.6 29.3 27.2 41.6 14.9"/><path class="cls-3" d="M140.3,54.2A26.25,26.25,0,1,1,166.6,28a26.25,26.25,0,0,1-26.3,26.2Z"/><path class="cls-4" d="M140.3,2.7A25.25,25.25,0,1,1,115,27.9,25.25,25.25,0,0,1,140.3,2.7m0-2A27.25,27.25,0,1,0,167.6,28,27.25,27.25,0,0,0,140.3.7Z"/><path class="cls-5" d="M151.8,13.5H126V42.1h28.6V13.5Zm0,25.9h-23v-23h23Z"/><path class="cls-3" d="M196.7,54.8A26.3,26.3,0,1,1,223,28.5v.1A26.33,26.33,0,0,1,196.7,54.8Z"/><path class="cls-4" d="M196.8,3.3a25.3,25.3,0,1,1-25.3,25.3A25.3,25.3,0,0,1,196.8,3.3m0-2A27.3,27.3,0,1,0,224,28.7v-.1A27.34,27.34,0,0,0,196.8,1.3Z"/><path class="cls-5" d="M212.7,36.6,196.7,9l-16,27.6-1.6,2.8h35.2Zm-15.9,0H184.1l12.7-21.9,12.7,21.9Z"/></g></g></svg>